<?xml version="1.0"?>
<svg xmlns="http://www.w3.org/2000/svg" enable-background="new 0 0 60 42" height="512px" viewBox="0 0 60 42" width="512px" class=""><g><path d="m14 32h8v9h-8z" fill="#ebba16" data-original="#EBBA16" class=""/><path d="m28 32h22v9h-22z" fill="#ebba16" data-original="#EBBA16" class=""/><path d="m3 10h4v6h-4z" fill="#ebba16" data-original="#EBBA16" class=""/><path d="m3 24h4v4h-4z" fill="#ebba16" data-original="#EBBA16" class=""/><path d="m54.999 6h-47.999v24c0 2.209 1.791 4 4 4h43.999c2.21 0 4.001-1.791 4.001-4.001v-19.998c0-2.21-1.791-4.001-4.001-4.001z" fill="#28384c" data-original="#28384C" class="" data-old_color="#28384c" style="fill:#76BF43"/><circle cx="45" cy="20" fill="#001933" r="10" data-original="#001933" class="active-path" data-old_color="#001933" style="fill:#1CA5C3"/><g fill="#4d007e"><path d="m7 2h-6c-.552 0-1-.448-1-1s.448-1 1-1h6c.552 0 1 .448 1 1s-.448 1-1 1z" data-original="#000000" class="" style="fill:#000000"/><path d="m7 26c-.552 0-1-.448-1-1v-24c0-.552.448-1 1-1s1 .448 1 1v24c0 .552-.448 1-1 1z" data-original="#000000" class="" style="fill:#000000"/><path d="m7 17h-4c-.552 0-1-.448-1-1v-6c0-.552.448-1 1-1h4c.552 0 1 .448 1 1v6c0 .552-.448 1-1 1zm-3-2h2v-4h-2z" data-original="#000000" class="" style="fill:#000000"/><path d="m7 29h-4c-.552 0-1-.448-1-1v-4c0-.552.448-1 1-1h4c.552 0 1 .448 1 1v4c0 .552-.448 1-1 1zm-3-2h2v-2h-2z" data-original="#000000" class="" style="fill:#000000"/><path d="m18 42c-.552 0-1-.448-1-1v-3c0-.552.448-1 1-1s1 .448 1 1v3c0 .552-.448 1-1 1z" data-original="#000000" class="" style="fill:#000000"/><path d="m22 42h-8c-.552 0-1-.448-1-1v-7c0-.552.448-1 1-1h8c.552 0 1 .448 1 1v7c0 .552-.448 1-1 1zm-7-2h6v-5h-6z" data-original="#000000" class="" style="fill:#000000"/><path d="m7 7h-4c-.552 0-1-.448-1-1s.448-1 1-1h4c.552 0 1 .448 1 1s-.448 1-1 1z" data-original="#000000" class="" style="fill:#000000"/><path d="m7 21h-4c-.552 0-1-.448-1-1s.448-1 1-1h4c.552 0 1 .448 1 1s-.448 1-1 1z" data-original="#000000" class="" style="fill:#000000"/><path d="m54.999 35h-43.999c-2.757 0-5-2.243-5-5v-24c0-.552.448-1 1-1h47.999c2.758 0 5.001 2.243 5.001 5v20c0 2.757-2.243 5-5.001 5zm-46.999-28v23c0 1.654 1.346 3 3 3h43.999c1.655 0 3.001-1.346 3.001-3v-20c0-1.654-1.346-3-3.001-3z" data-original="#000000" class="" style="fill:#000000"/><path d="m45 31c-6.065 0-11-4.935-11-11s4.935-11 11-11 11 4.935 11 11-4.935 11-11 11zm0-20c-4.963 0-9 4.038-9 9s4.037 9 9 9 9-4.038 9-9-4.037-9-9-9z" data-original="#000000" class="" style="fill:#000000"/><path d="m45 24c-2.206 0-4-1.794-4-4s1.794-4 4-4 4 1.794 4 4-1.794 4-4 4zm0-6c-1.103 0-2 .897-2 2s.897 2 2 2 2-.897 2-2-.897-2-2-2z" data-original="#000000" class="" style="fill:#000000"/><path d="m45 18c-.552 0-1-.448-1-1 0-2.154-2.749-4-5-4-.552 0-1-.448-1-1s.448-1 1-1c3.237 0 7 2.621 7 6 0 .552-.448 1-1 1z" data-original="#000000" class="" style="fill:#000000"/><path d="m51 29c-3.237 0-7-2.621-7-6 0-.552.448-1 1-1s1 .448 1 1c0 2.154 2.749 4 5 4 .552 0 1 .448 1 1s-.448 1-1 1z" data-original="#000000" class="" style="fill:#000000"/><path d="m37 27c-.552 0-1-.448-1-1 0-3.237 2.621-7 6-7 .552 0 1 .448 1 1s-.448 1-1 1c-2.154 0-4 2.75-4 5 0 .552-.448 1-1 1z" data-original="#000000" class="" style="fill:#000000"/><path d="m48 21c-.552 0-1-.448-1-1s.448-1 1-1c2.154 0 4-2.75 4-5 0-.552.448-1 1-1s1 .448 1 1c0 3.237-2.621 7-6 7z" data-original="#000000" class="" style="fill:#000000"/><path d="m35.101 19.586c-.256 0-.512-.098-.707-.293-.391-.39-.391-1.023 0-1.414 1.113-1.113 2.786-1.9 4.476-2.105 1.908-.235 3.584.264 4.717 1.398.39.391.39 1.024 0 1.414-.391.391-1.024.391-1.414 0-.679-.679-1.793-.98-3.061-.827-1.261.153-2.495.727-3.302 1.534-.197.195-.454.293-.709.293z" data-original="#000000" class="" style="fill:#000000"/><path d="m50.23 24.282c-1.532 0-2.865-.502-3.816-1.454-.39-.391-.39-1.024 0-1.414.391-.391 1.024-.391 1.414 0 .679.679 1.794.982 3.061.827 1.261-.153 2.495-.727 3.302-1.534.391-.391 1.024-.391 1.414 0 .391.39.391 1.023 0 1.414-1.113 1.113-2.786 1.9-4.476 2.105-.305.038-.606.056-.899.056z" data-original="#000000" class="" style="fill:#000000"/><path d="m43.586 30.899c-.256 0-.512-.098-.707-.293-2.289-2.289-3.096-6.803-.707-9.192.391-.391 1.024-.391 1.414 0 .391.39.391 1.023 0 1.414-1.523 1.523-.885 4.773.707 6.364.391.391.391 1.023 0 1.414-.195.196-.451.293-.707.293z" data-original="#000000" class="" style="fill:#000000"/><path d="m47.121 18.879c-.256 0-.512-.098-.707-.293-.391-.39-.391-1.023 0-1.414 1.523-1.523.885-4.773-.707-6.364-.391-.391-.391-1.023 0-1.414.39-.391 1.024-.391 1.414 0 2.289 2.289 3.096 6.803.707 9.192-.195.195-.451.293-.707.293z" data-original="#000000" class="" style="fill:#000000"/><path d="m50 42h-22c-.552 0-1-.448-1-1v-7c0-.552.448-1 1-1h22c.552 0 1 .448 1 1v7c0 .552-.448 1-1 1zm-21-2h20v-5h-20z" data-original="#000000" class="" style="fill:#000000"/><path d="m33 42c-.552 0-1-.448-1-1v-3c0-.552.448-1 1-1s1 .448 1 1v3c0 .552-.448 1-1 1z" data-original="#000000" class="" style="fill:#000000"/><path d="m45 42c-.552 0-1-.448-1-1v-3c0-.552.448-1 1-1s1 .448 1 1v3c0 .552-.448 1-1 1z" data-original="#000000" class="" style="fill:#000000"/><path d="m41 42c-.552 0-1-.448-1-1v-3c0-.552.448-1 1-1s1 .448 1 1v3c0 .552-.448 1-1 1z" data-original="#000000" class="" style="fill:#000000"/><path d="m37 42c-.552 0-1-.448-1-1v-3c0-.552.448-1 1-1s1 .448 1 1v3c0 .552-.448 1-1 1z" data-original="#000000" class="" style="fill:#000000"/><path d="m35 35c-.256 0-.512-.098-.707-.293l-7.707-7.707h-19.586c-.552 0-1-.448-1-1v-12c0-.552.448-1 1-1h19.586l7.707-7.707c.39-.391 1.024-.391 1.414 0 .391.391.391 1.023 0 1.414l-8 8c-.187.188-.442.293-.707.293h-19v10h19c.265 0 .52.105.707.293l8 8c.391.391.391 1.023 0 1.414-.195.195-.451.293-.707.293z" data-original="#000000" class="" style="fill:#000000"/><path d="m27 21h-4c-.552 0-1-.448-1-1s.448-1 1-1h4c.552 0 1 .448 1 1s-.448 1-1 1z" data-original="#000000" class="" style="fill:#000000"/><path d="m18 21h-11c-.552 0-1-.448-1-1s.448-1 1-1h11c.552 0 1 .448 1 1s-.448 1-1 1z" data-original="#000000" class="" style="fill:#000000"/></g></g> </svg>
