<?xml version="1.0" encoding="iso-8859-1"?>
<!-- Generator: Adobe Illustrator 19.0.0, SVG Export Plug-In . SVG Version: 6.00 Build 0)  -->
<svg version="1.1" id="Capa_1" xmlns="http://www.w3.org/2000/svg" xmlns:xlink="http://www.w3.org/1999/xlink" x="0px" y="0px"
	 viewBox="0 0 511.85 511.85" style="enable-background:new 0 0 511.85 511.85;" xml:space="preserve">
<g>
	<g transform="translate(1 1)">
		<path style="fill:#558B30;" d="M502.306,164.386l-337.92,337.92l-42.24-42.24c6.632-6.651,6.634-17.415,0.004-24.068
			c-6.63-6.654-17.393-6.69-24.068-0.081l-24.149-24.149c6.645-6.669,6.626-17.462-0.043-24.107
			c-6.669-6.645-17.462-6.626-24.107,0.043l-42.24-42.24l337.92-337.92l42.24,42.24c-4.337,4.294-6.047,10.579-4.484,16.478
			c1.563,5.899,6.16,10.513,12.054,12.097c5.894,1.584,12.185-0.104,16.494-4.426l24.149,24.149
			c-6.645,6.669-6.626,17.462,0.043,24.107c6.669,6.645,17.462,6.626,24.107-0.043L502.306,164.386z"/>
		<path style="fill:#8BC34A;" d="M485.154,181.368L164.301,502.221l-42.155-42.155c6.632-6.651,6.634-17.415,0.004-24.068
			c-6.63-6.654-17.393-6.69-24.068-0.081l-24.149-24.149c6.645-6.669,6.626-17.462-0.043-24.107
			c-6.669-6.645-17.462-6.626-24.107,0.043l-42.24-42.24L328.397,24.61l42.155,42.155c-6.669,6.669-6.669,17.481,0,24.149
			c6.669,6.669,17.481,6.669,24.149,0l24.064,24.149c-6.637,6.674-6.622,17.46,0.034,24.116c6.655,6.656,17.442,6.671,24.116,0.034
			L485.154,181.368z"/>
		<g>
			<path style="fill:#37474F;" d="M91.973,345.448l18.102-18.102c3.332-3.332,8.736-3.332,12.068,0l48.272,48.272
				c3.332,3.332,3.332,8.736,0,12.068l-18.102,18.102c-3.332,3.332-8.736,3.332-12.068,0l-48.272-48.272
				C88.641,354.184,88.641,348.781,91.973,345.448z"/>
			<path style="fill:#37474F;" d="M146.35,291.155l18.102-18.102c3.332-3.332,8.736-3.332,12.068,0l48.272,48.272
				c3.332,3.332,3.332,8.736,0,12.068l-18.102,18.102c-3.332,3.332-8.736,3.332-12.068,0l-48.272-48.272
				C143.017,299.891,143.017,294.487,146.35,291.155z"/>
			<path style="fill:#37474F;" d="M200.622,236.831l18.102-18.102c3.332-3.332,8.736-3.332,12.068,0l48.272,48.272
				c3.332,3.332,3.332,8.736,0,12.068l-18.102,18.102c-3.332,3.332-8.736,3.332-12.068,0l-48.272-48.272
				C197.289,245.566,197.289,240.163,200.622,236.831z"/>
		</g>
		<path style="fill:#00838F;" d="M405.794,152.354l-12.032,12.032l-11.435,11.435l-5.973,6.059l-12.203,12.117l-6.656,6.656
			l-11.349,11.435l-6.059,6.059l-12.117,12.032L315,243.149c-3.359,3.085-8.554,2.972-11.776-0.256l-48.299-48.299
			c-3.328-3.353-3.328-8.764,0-12.117l73.045-73.045l0.341-0.341l17.152-17.067c1.594-1.598,3.759-2.496,6.016-2.496
			c2.257,0,4.422,0.898,6.016,2.496l48.299,48.213C409.123,143.59,409.123,149.001,405.794,152.354z"/>
		<path style="fill:#00BCD4;" d="M388.301,169.762l-11.947,12.117l-12.203,12.117l-6.656,6.656l-5.376,5.291l-5.973,6.144
			l-6.059,6.059l-12.117,12.032L315,243.149c-3.359,3.085-8.554,2.972-11.776-0.256l-48.299-48.299
			c-3.328-3.353-3.328-8.764,0-12.117l73.045-73.045l0.341-0.341c3.399-3.016,8.558-2.867,11.776,0.341l48.213,48.299
			c1.598,1.594,2.496,3.759,2.496,6.016C390.797,166.004,389.899,168.168,388.301,169.762z"/>
		
			<rect x="147.312" y="461.095" transform="matrix(-0.7071 0.7071 -0.7071 -0.7071 618.7246 700.0374)" style="fill:#FF9801;" width="34.133" height="34.133"/>
		
			<rect x="116.473" y="304.199" transform="matrix(-0.7071 0.7071 -0.7071 -0.7071 775.6032 321.2659)" style="fill:#FFEB3A;" width="409.585" height="34.133"/>
		
			<rect x="461.088" y="147.343" transform="matrix(-0.7071 0.7071 -0.7071 -0.7071 932.507 -57.4423)" style="fill:#FF9801;" width="34.125" height="34.125"/>
	</g>
	<g>
		<path d="M394.704,44.737L352.467,2.5c-1.6-1.601-3.77-2.5-6.033-2.5S342,0.899,340.4,2.5L2.5,340.4C0.899,342,0,344.17,0,346.433
			s0.899,4.434,2.5,6.033l42.237,42.237c1.6,1.601,3.77,2.5,6.033,2.5s4.434-0.899,6.033-2.5c3.336-3.314,8.725-3.304,12.049,0.022
			c3.324,3.326,3.332,8.714,0.018,12.049c-1.601,1.6-2.5,3.77-2.5,6.033c0,2.263,0.899,4.434,2.5,6.033l24.137,24.137
			c1.6,1.601,3.77,2.5,6.033,2.5c2.263,0,4.434-0.899,6.033-2.5c3.391-3.192,8.68-3.192,12.071,0c3.325,3.335,3.325,8.732,0,12.067
			c-1.601,1.6-2.5,3.77-2.5,6.033c0,2.263,0.899,4.434,2.5,6.033l18.092,18.092l0.009,0.013l0.013,0.009l24.125,24.125
			c1.6,1.601,3.77,2.5,6.033,2.5s4.434-0.899,6.033-2.5l337.9-337.9c1.601-1.6,2.5-3.77,2.5-6.033s-0.899-4.434-2.5-6.033
			l-24.125-24.125l-0.009-0.013l-0.013-0.009l-18.092-18.092c-1.6-1.601-3.77-2.5-6.033-2.5s-4.434,0.899-6.033,2.5
			c-3.336,3.314-8.725,3.304-12.049-0.022c-3.324-3.326-3.332-8.714-0.018-12.049c1.601-1.6,2.5-3.77,2.5-6.033
			s-0.899-4.434-2.5-6.033l-24.137-24.137c-1.6-1.601-3.77-2.5-6.033-2.5c-2.263,0-4.433,0.899-6.033,2.5
			c-3.391,3.192-8.68,3.192-12.071,0c-3.325-3.335-3.325-8.732,0-12.067c1.601-1.6,2.5-3.77,2.5-6.033
			S396.305,46.337,394.704,44.737z M165.417,491.25l-12.069-12.069l12.068-12.068l12.068,12.07L165.417,491.25z M455.047,177.483
			l12.07,12.068L189.551,467.116l-12.068-12.07L455.047,177.483z M479.183,177.484l-12.07-12.068l12.068-12.068l12.069,12.069
			L479.183,177.484z M411.775,85.938l14.138,14.138c-4.675,9.79-2.673,21.464,4.998,29.136s19.345,9.676,29.135,5.002l7.069,7.069
			L141.281,467.115l-7.069-7.069c4.674-9.791,2.67-21.464-5.002-29.135c-7.672-7.671-19.346-9.674-29.136-4.998l-14.138-14.137
			c4.675-9.79,2.673-21.464-4.998-29.136s-19.345-9.676-29.135-5.002L20.6,346.433L346.434,20.6l31.204,31.204
			c-4.674,9.791-2.67,21.464,5.002,29.135S401.985,90.613,411.775,85.938z"/>
		<path d="M62.813,340.404c-1.576-1.631-3.747-2.551-6.015-2.551c-2.268,0-4.438,0.921-6.015,2.551
			c-1.606,1.605-2.497,3.789-2.475,6.059c-0.021,2.245,0.872,4.402,2.475,5.975c1.596,1.629,3.778,2.55,6.059,2.558
			c2.255-0.009,4.409-0.932,5.971-2.558c0.824-0.759,1.466-1.693,1.879-2.733c0.437-1.026,0.67-2.127,0.683-3.242
			c-0.022-1.142-0.253-2.271-0.683-3.329C64.28,342.094,63.637,341.161,62.813,340.404z"/>
		<path d="M346.463,65.375c4.665-0.114,8.419-3.869,8.533-8.533c-0.008-2.28-0.93-4.463-2.558-6.059
			c-3.372-3.202-8.661-3.202-12.033,0c-1.606,1.605-2.497,3.789-2.475,6.059c-0.022,2.244,0.872,4.4,2.475,5.971
			C341.999,64.444,344.181,65.367,346.463,65.375z"/>
		<path d="M129.213,322.3c-6.667-6.663-17.471-6.663-24.137,0l-18.1,18.1c-6.654,6.67-6.654,17.467,0,24.138l48.271,48.271
			c3.2,3.201,7.54,5,12.067,5c4.526,0,8.867-1.799,12.067-5l18.104-18.104c3.201-3.2,5-7.54,5-12.067c0-4.526-1.799-8.867-5-12.067
			L129.213,322.3z M165.421,382.633l-0.004,0.004l-18.104,18.104l-48.271-48.275l18.104-18.1l48.279,48.258L165.421,382.633z"/>
		<path d="M183.513,267.987c-6.67-6.649-17.462-6.647-24.129,0.004l-18.104,18.104c-6.654,6.668-6.654,17.465,0,24.133L189.55,358.5
			c6.669,6.656,17.468,6.656,24.137,0l18.1-18.1c3.201-3.2,5-7.54,5-12.067c0-4.526-1.799-8.867-5-12.067L183.513,267.987z
			 M201.617,346.433l-48.271-48.271l18.104-18.104l48.279,48.267L201.617,346.433z"/>
		<path d="M237.825,213.692c-6.75-6.455-17.385-6.457-24.138-0.004l-18.096,18.1c-3.203,3.199-5.003,7.541-5.004,12.068
			c-0.001,4.527,1.798,8.869,5,12.07l48.271,48.271c6.668,6.656,17.465,6.656,24.133,0l18.104-18.1l0.004-0.004
			c6.647-6.672,6.645-17.464-0.004-24.133L237.825,213.692z M255.925,292.129l-48.271-48.271l18.1-18.104l48.279,48.271
			L255.925,292.129z"/>
		<path d="M340.4,86.975l-90.508,90.508c-3.201,3.2-5,7.54-5,12.067c0,4.526,1.799,8.867,5,12.067l48.275,48.279
			c6.672,6.646,17.463,6.644,24.133-0.004l90.508-90.513c3.201-3.2,5-7.54,5-12.067c0-4.526-1.799-8.867-5-12.067l-48.271-48.271
			C357.868,80.319,347.069,80.319,340.4,86.975z M400.746,147.308l-0.004,0.004l-12.071,12.071l-6.033-6.033
			c-2.156-2.156-5.297-2.997-8.242-2.208c-2.944,0.789-5.244,3.089-6.033,6.033s0.053,6.086,2.208,8.242l6.033,6.033l-12.068,12.068
			l-6.036-6.034c-2.156-2.156-5.297-2.997-8.242-2.208c-2.944,0.789-5.244,3.089-6.033,6.033c-0.789,2.944,0.053,6.086,2.208,8.242
			l6.036,6.034l-12.07,12.07l-6.033-6.033c-2.155-2.156-5.297-2.997-8.242-2.208c-2.944,0.789-5.244,3.089-6.033,6.033
			c-0.789,2.944,0.053,6.086,2.208,8.242l6.033,6.033l-18.104,18.104l-48.271-48.275l90.513-90.508l48.279,48.258L400.746,147.308z"
			/>
		<path d="M322.3,153.35l-24.137,24.133c-2.156,2.156-2.997,5.297-2.208,8.242c0.789,2.944,3.089,5.244,6.033,6.033
			c2.944,0.789,6.086-0.053,8.242-2.208l24.137-24.133c3.332-3.332,3.332-8.735,0-12.067S325.632,150.018,322.3,153.35z"/>
		<path d="M343.904,135.262c0.032,4.699,3.834,8.501,8.533,8.533c2.259-0.033,4.422-0.917,6.059-2.475
			c1.591-1.614,2.481-3.792,2.475-6.059c0.01-1.137-0.194-2.267-0.6-3.329c-0.443-1.022-1.08-1.949-1.875-2.729
			c-3.351-3.253-8.682-3.253-12.033,0C344.847,130.809,343.929,132.986,343.904,135.262z"/>
	</g>
</g>
<g>
</g>
<g>
</g>
<g>
</g>
<g>
</g>
<g>
</g>
<g>
</g>
<g>
</g>
<g>
</g>
<g>
</g>
<g>
</g>
<g>
</g>
<g>
</g>
<g>
</g>
<g>
</g>
<g>
</g>
</svg>
