<svg id="Layer_3" enable-background="new 0 0 64 64" height="512" viewBox="0 0 64 64" width="512" xmlns="http://www.w3.org/2000/svg"><circle cx="32" cy="32" fill="#868992" r="30"/><circle cx="32" cy="32" fill="#d1f2fd" r="24"/><path d="m22 41h4v8h-4z" fill="#5f9747"/><path d="m26 41h4v8h-4z" fill="#7ec95f"/><path d="m30 41h4v8h-4z" fill="#5f9747"/><path d="m34 41h4v8h-4z" fill="#7ec95f"/><path d="m38 41h4v8h-4z" fill="#5f9747"/><path d="m56 32h-6c0-9.941-8.059-18-18-18s-18 8.059-18 18h-6c0-13.255 10.745-24 24-24s24 10.745 24 24z" fill="#f2a348"/><path d="m15 15 4.272 4.272c-3.257 3.257-5.272 7.757-5.272 12.728h-6c0-6.612 2.674-12.6 7-16.941" fill="#ed6863"/><path d="m56 32c0-6.642-2.699-12.655-7.059-17h.059l-4.272 4.272c3.257 3.257 5.272 7.757 5.272 12.728z" fill="#ed6863"/><path d="m28 35 2 2h4l2-2-4-16z" fill="#868992"/><path d="" fill="none"/><path d="m32 63c-17.093 0-31-13.906-31-31s13.907-31 31-31 31 13.906 31 31-13.907 31-31 31zm0-60c-15.991 0-29 13.01-29 29s13.009 29 29 29 29-13.01 29-29-13.009-29-29-29z"/><path d="m32 57c-13.785 0-25-11.215-25-25s11.215-25 25-25 25 11.215 25 25-11.215 25-25 25zm0-48c-12.682 0-23 10.317-23 23s10.318 23 23 23 23-10.317 23-23-10.318-23-23-23z"/><path d="m31 8h2v6h-2z"/><path d="m56 33h-6c-.552 0-1-.447-1-1 0-9.374-7.626-17-17-17s-17 7.626-17 17c0 .553-.448 1-1 1h-6v-2h5.026c.522-10.014 8.833-18 18.974-18s18.452 7.986 18.974 18h5.026z"/><path d="m44.172 16h5.657v2h-5.657z" transform="matrix(.707 -.707 .707 .707 1.745 38.213)"/><path d="m16 14.172h2v5.657h-2z" transform="matrix(.707 -.707 .707 .707 -7.042 17)"/><path d="m34 38h-4c-.265 0-.52-.105-.707-.293l-2-2c-.249-.248-.348-.608-.263-.949l4-16c.111-.446.511-.758.97-.758s.859.312.97.758l4 16c.085.341-.015.701-.263.949l-2 2c-.187.188-.442.293-.707.293zm-3.586-2h3.172l1.307-1.307-2.893-11.57-2.893 11.57z"/><path d="m42 50h-20c-.552 0-1-.447-1-1v-8c0-.553.448-1 1-1h20c.552 0 1 .447 1 1v8c0 .553-.448 1-1 1zm-19-2h18v-6h-18z"/><path d="m25 41h2v8h-2z"/><path d="m29 41h2v8h-2z"/><path d="m33 41h2v8h-2z"/><path d="m37 41h2v8h-2z"/></svg>